<?xml version="1.0" encoding="UTF-8" standalone="no"?>
<svg
   viewBox="0 0 128 128"
   style="display:inline;enable-background:new"
   version="1.0"
   id="svg11300"
   height="128"
   width="128"
   sodipodi:docname="phone.svg"
   inkscape:version="1.2.1 (9c6d41e410, 2022-07-14)"
   xmlns:inkscape="http://www.inkscape.org/namespaces/inkscape"
   xmlns:sodipodi="http://sodipodi.sourceforge.net/DTD/sodipodi-0.dtd"
   xmlns:xlink="http://www.w3.org/1999/xlink"
   xmlns="http://www.w3.org/2000/svg"
   xmlns:svg="http://www.w3.org/2000/svg"
   xmlns:rdf="http://www.w3.org/1999/02/22-rdf-syntax-ns#"
   xmlns:cc="http://creativecommons.org/ns#"
   xmlns:dc="http://purl.org/dc/elements/1.1/">
  <sodipodi:namedview
     pagecolor="#ffffff"
     bordercolor="#666666"
     borderopacity="1"
     objecttolerance="10"
     gridtolerance="10"
     guidetolerance="10"
     inkscape:pageopacity="0"
     inkscape:pageshadow="2"
     inkscape:window-width="2560"
     inkscape:window-height="1364"
     id="namedview35"
     showgrid="true"
     inkscape:zoom="7.7169727"
     inkscape:cx="78.852164"
     inkscape:cy="59.349698"
     inkscape:window-x="0"
     inkscape:window-y="0"
     inkscape:window-maximized="1"
     inkscape:current-layer="svg11300"
     inkscape:document-rotation="0"
     inkscape:showpageshadow="2"
     inkscape:pagecheckerboard="0"
     inkscape:deskcolor="#d1d1d1">
    <inkscape:grid
       type="xygrid"
       id="grid894"
       empspacing="4" />
  </sodipodi:namedview>
  <title
     id="title4162">Adwaita Icon Template</title>
  <defs
     id="defs3">
    <linearGradient
       id="linearGradient974">
      <stop
         style="stop-color:#babdb6;stop-opacity:1"
         offset="0"
         id="stop962" />
      <stop
         id="stop964"
         offset="0.04166667"
         style="stop-color:#f6f5f4;stop-opacity:1" />
      <stop
         style="stop-color:#d5d3cf;stop-opacity:1"
         offset="0.08333334"
         id="stop966" />
      <stop
         id="stop968"
         offset="0.91666669"
         style="stop-color:#deddda;stop-opacity:1" />
      <stop
         style="stop-color:#f6f5f4;stop-opacity:1"
         offset="0.95833331"
         id="stop970" />
      <stop
         style="stop-color:#babdb6;stop-opacity:1"
         offset="1"
         id="stop972" />
    </linearGradient>
    <linearGradient
       y2="44"
       x2="464"
       y1="44"
       x1="48"
       gradientTransform="matrix(0.25,0,0,0.25,-129,37.000008)"
       gradientUnits="userSpaceOnUse"
       id="linearGradient1747"
       xlink:href="#linearGradient974" />
    <clipPath
       id="clipPath1784"
       clipPathUnits="userSpaceOnUse">
      <rect
         ry="14"
         rx="14"
         y="202"
         x="36"
         height="28"
         width="59.999996"
         id="rect1786"
         style="opacity:1;vector-effect:none;fill:#3584e4;fill-opacity:1;stroke:none;stroke-width:0.85391253;stroke-linecap:square;stroke-linejoin:round;stroke-miterlimit:4;stroke-dasharray:none;stroke-dashoffset:0;stroke-opacity:1" />
    </clipPath>
    <linearGradient
       y2="44"
       x2="464"
       y1="44"
       x1="48"
       gradientTransform="matrix(0.25,0,0,0.25,3.3e-7,53)"
       gradientUnits="userSpaceOnUse"
       id="linearGradient1747-3"
       xlink:href="#linearGradient974" />
    <linearGradient
       inkscape:collect="always"
       xlink:href="#linearGradient2207"
       id="linearGradient2209"
       x1="26.563435"
       y1="285.50018"
       x2="99.860764"
       y2="285.50018"
       gradientUnits="userSpaceOnUse" />
    <linearGradient
       inkscape:collect="always"
       id="linearGradient2207">
      <stop
         style="stop-color:#c0bfbc;stop-opacity:1;"
         offset="0"
         id="stop2203" />
      <stop
         style="stop-color:#f6f5f4;stop-opacity:1"
         offset="0.05577132"
         id="stop2309" />
      <stop
         style="stop-color:#deddda;stop-opacity:1"
         offset="0.1150814"
         id="stop2635" />
      <stop
         style="stop-color:#c0bfbc;stop-opacity:1;"
         offset="0.84454578"
         id="stop2377" />
      <stop
         style="stop-color:#f6f5f4;stop-opacity:1"
         offset="0.93227601"
         id="stop2375" />
      <stop
         style="stop-color:#c0bfbc;stop-opacity:1"
         offset="1"
         id="stop2205" />
    </linearGradient>
  </defs>
  <metadata
     id="metadata4">
    <rdf:RDF>
      <cc:Work
         rdf:about="">
        <dc:format>image/svg+xml</dc:format>
        <dc:type
           rdf:resource="http://purl.org/dc/dcmitype/StillImage" />
        <dc:creator>
          <cc:Agent>
            <dc:title>GNOME Design Team</dc:title>
          </cc:Agent>
        </dc:creator>
        <dc:source />
        <cc:license
           rdf:resource="http://creativecommons.org/licenses/by-sa/4.0/" />
        <dc:title>Adwaita Icon Template</dc:title>
        <dc:subject>
          <rdf:Bag />
        </dc:subject>
        <dc:date />
        <dc:rights>
          <cc:Agent>
            <dc:title />
          </cc:Agent>
        </dc:rights>
        <dc:publisher>
          <cc:Agent>
            <dc:title />
          </cc:Agent>
        </dc:publisher>
        <dc:identifier />
        <dc:relation />
        <dc:language />
        <dc:coverage />
        <dc:description />
        <dc:contributor>
          <cc:Agent>
            <dc:title />
          </cc:Agent>
        </dc:contributor>
      </cc:Work>
      <cc:License
         rdf:about="http://creativecommons.org/licenses/by-sa/4.0/">
        <cc:permits
           rdf:resource="http://creativecommons.org/ns#Reproduction" />
        <cc:permits
           rdf:resource="http://creativecommons.org/ns#Distribution" />
        <cc:requires
           rdf:resource="http://creativecommons.org/ns#Notice" />
        <cc:requires
           rdf:resource="http://creativecommons.org/ns#Attribution" />
        <cc:permits
           rdf:resource="http://creativecommons.org/ns#DerivativeWorks" />
        <cc:requires
           rdf:resource="http://creativecommons.org/ns#ShareAlike" />
      </cc:License>
    </rdf:RDF>
  </metadata>
  <g
     id="g1566"
     style="display:inline;enable-background:new"
     transform="translate(1.9073486e-6,-172)"
     inkscape:export-filename="16x16/phone.png"
     inkscape:export-xdpi="13.714286"
     inkscape:export-ydpi="13.714286">
    <rect
       style="display:inline;fill:#464153;fill-opacity:1;stroke:none;stroke-width:0.25;stroke-linecap:butt;stroke-linejoin:miter;stroke-miterlimit:4;stroke-dasharray:none;stroke-dashoffset:0;stroke-opacity:1;marker:none;marker-start:none;marker-mid:none;marker-end:none;paint-order:normal;enable-background:new"
       id="rect2297"
       width="64"
       height="38"
       x="32"
       y="254"
       rx="8"
       ry="8" />
    <rect
       ry="8"
       rx="8"
       y="212"
       x="27.999998"
       height="80"
       width="72"
       id="rect1496"
       style="display:inline;fill:url(#linearGradient2209);fill-opacity:1;stroke:none;stroke-width:0.25;stroke-linecap:butt;stroke-linejoin:miter;stroke-miterlimit:4;stroke-dasharray:none;stroke-dashoffset:0;stroke-opacity:1;marker:none;marker-start:none;marker-mid:none;marker-end:none;paint-order:normal;enable-background:new" />
    <rect
       style="display:inline;fill:#f6f5f4;fill-opacity:1;stroke:none;stroke-width:0.25;stroke-linecap:butt;stroke-linejoin:miter;stroke-miterlimit:4;stroke-dasharray:none;stroke-dashoffset:0;stroke-opacity:1;marker:none;marker-start:none;marker-mid:none;marker-end:none;paint-order:normal;enable-background:new"
       id="rect1498"
       width="72"
       height="100"
       x="27.999998"
       y="180"
       rx="8"
       ry="7.9999995" />
    <rect
       ry="4.0000024"
       rx="4.0000029"
       y="183.99998"
       x="31.999998"
       height="91.999992"
       width="64"
       id="rect1687"
       style="display:inline;fill:#3d3846;fill-opacity:1;stroke:none;stroke-width:0.25;stroke-linecap:butt;stroke-linejoin:miter;stroke-miterlimit:4;stroke-dasharray:none;stroke-dashoffset:0;stroke-opacity:1;marker:none;marker-start:none;marker-mid:none;marker-end:none;paint-order:normal;enable-background:new" />
    <circle
       r="2"
       cy="189"
       cx="80"
       id="path1702"
       style="opacity:1;fill:#9a9996;fill-opacity:1;stroke:none;stroke-linecap:round;stroke-linejoin:round" />
    <rect
       ry="1"
       rx="1"
       y="188"
       x="59"
       height="2"
       width="10"
       id="rect1704"
       style="opacity:1;fill:#9a9996;fill-opacity:1;stroke:none;stroke-width:1;stroke-linecap:round;stroke-linejoin:round" />
    <rect
       style="opacity:1;fill:#241f31;fill-opacity:1;stroke:none;stroke-width:1;stroke-linecap:round;stroke-linejoin:round"
       id="rect1728"
       width="10"
       height="5"
       x="59"
       y="283"
       rx="2.5"
       ry="2.5" />
    <path
       sodipodi:nodetypes="csssscssc"
       inkscape:connector-curvature="0"
       d="M 59.050781,285 C 59.018326,285.1613 59,285.32886 59,285.5 c 0,1.385 1.115,2.5 2.5,2.5 h 5 c 1.385,0 2.5,-1.115 2.5,-2.5 0,-0.17114 -0.01833,-0.3387 -0.05078,-0.5 -0.230197,1.14407 -1.235359,2 -2.449219,2 h -5 c -1.21386,0 -2.219022,-0.85593 -2.44922,-2 z"
       style="opacity:1;fill:#9a9996;fill-opacity:1;stroke:none;stroke-width:1;stroke-linecap:round;stroke-linejoin:round"
       id="rect1834" />
    <g
       transform="translate(0,0.5)"
       id="g2295">
      <path
         inkscape:connector-curvature="0"
         id="circle1865"
         style="display:inline;fill:#241f31;fill-opacity:1;stroke:none;stroke-width:1;stroke-linecap:round;stroke-linejoin:round;enable-background:new"
         d="m 54.5,127.5 a 1.5,1.5 0 0 0 -1.5,1.5 1.5,1.5 0 0 0 1.5,1.5 1.5,1.5 0 0 0 1.5,-1.5 1.5,1.5 0 0 0 -1.5,-1.5 z m 4,0 a 1.5,1.5 0 0 0 -1.5,1.5 1.5,1.5 0 0 0 1.5,1.5 1.5,1.5 0 0 0 1.5,-1.5 1.5,1.5 0 0 0 -1.5,-1.5 z m 4,0 a 1.5,1.5 0 0 0 -1.5,1.5 1.5,1.5 0 0 0 1.5,1.5 1.5,1.5 0 0 0 1.5,-1.5 1.5,1.5 0 0 0 -1.5,-1.5 z"
         transform="translate(-8,156)" />
      <g
         transform="translate(27)"
         id="g1887">
        <circle
           r="1.5"
           cy="285"
           cx="46.5"
           style="display:inline;fill:#241f31;fill-opacity:1;stroke:none;stroke-width:1;stroke-linecap:round;stroke-linejoin:round;enable-background:new"
           id="circle1881" />
        <circle
           id="circle1883"
           style="display:inline;fill:#241f31;fill-opacity:1;stroke:none;stroke-width:1;stroke-linecap:round;stroke-linejoin:round;enable-background:new"
           cx="50.5"
           cy="285"
           r="1.5" />
        <circle
           r="1.5"
           cy="285"
           cx="54.5"
           style="display:inline;fill:#241f31;fill-opacity:1;stroke:none;stroke-width:1;stroke-linecap:round;stroke-linejoin:round;enable-background:new"
           id="circle1885" />
      </g>
      <path
         inkscape:connector-curvature="0"
         id="path2046"
         style="display:inline;fill:#9a9996;fill-opacity:1;stroke:none;stroke-width:1;stroke-linecap:round;stroke-linejoin:round;enable-background:new"
         d="M 55.914062,128.49805 A 1.5,1.5 0 0 1 54.5,129.5 1.5,1.5 0 0 1 53.085938,128.50195 1.5,1.5 0 0 0 53,129 a 1.5,1.5 0 0 0 1.5,1.5 1.5,1.5 0 0 0 1.5,-1.5 1.5,1.5 0 0 0 -0.08594,-0.50195 z m 4,0 A 1.5,1.5 0 0 1 58.5,129.5 1.5,1.5 0 0 1 57.085938,128.50195 1.5,1.5 0 0 0 57,129 a 1.5,1.5 0 0 0 1.5,1.5 1.5,1.5 0 0 0 1.5,-1.5 1.5,1.5 0 0 0 -0.08594,-0.50195 z m 4,0 A 1.5,1.5 0 0 1 62.5,129.5 1.5,1.5 0 0 1 61.085938,128.50195 1.5,1.5 0 0 0 61,129 a 1.5,1.5 0 0 0 1.5,1.5 1.5,1.5 0 0 0 1.5,-1.5 1.5,1.5 0 0 0 -0.08594,-0.50195 z"
         transform="translate(-8,156)" />
      <path
         d="M 74.914062,284.49805 A 1.5,1.5 0 0 1 73.5,285.5 1.5,1.5 0 0 1 72.085938,284.50195 1.5,1.5 0 0 0 72,285 a 1.5,1.5 0 0 0 1.5,1.5 1.5,1.5 0 0 0 1.5,-1.5 1.5,1.5 0 0 0 -0.08594,-0.50195 z m 4,0 A 1.5,1.5 0 0 1 77.5,285.5 1.5,1.5 0 0 1 76.085938,284.50195 1.5,1.5 0 0 0 76,285 a 1.5,1.5 0 0 0 1.5,1.5 1.5,1.5 0 0 0 1.5,-1.5 1.5,1.5 0 0 0 -0.08594,-0.50195 z m 4,0 A 1.5,1.5 0 0 1 81.5,285.5 1.5,1.5 0 0 1 80.085938,284.50195 1.5,1.5 0 0 0 80,285 a 1.5,1.5 0 0 0 1.5,1.5 1.5,1.5 0 0 0 1.5,-1.5 1.5,1.5 0 0 0 -0.08594,-0.50195 z"
         style="display:inline;fill:#9a9996;fill-opacity:1;stroke:none;stroke-width:1;stroke-linecap:round;stroke-linejoin:round;enable-background:new"
         id="path2051"
         inkscape:connector-curvature="0" />
    </g>
    <circle
       r="6"
       cy="261"
       cx="46"
       id="path2072"
       style="fill:#f8e45c;fill-opacity:1;stroke:none;stroke-width:1;stroke-linecap:round;stroke-linejoin:round" />
    <circle
       style="fill:#33d17a;fill-opacity:1;stroke:none;stroke-width:1;stroke-linecap:round;stroke-linejoin:round"
       id="circle2082"
       cx="64"
       cy="261"
       r="6" />
    <circle
       style="fill:#ed333b;fill-opacity:1;stroke:none;stroke-width:1;stroke-linecap:round;stroke-linejoin:round"
       id="circle2084"
       cx="82"
       cy="261"
       r="6" />
    <circle
       style="fill:#ed333b;fill-opacity:1;stroke:none;stroke-width:1;stroke-linecap:round;stroke-linejoin:round"
       id="circle2301"
       cx="46"
       cy="242"
       r="6" />
    <circle
       r="6"
       cy="242"
       cx="64"
       id="circle2303"
       style="fill:#62a0ea;fill-opacity:1;stroke:none;stroke-width:1;stroke-linecap:round;stroke-linejoin:round" />
    <circle
       r="6"
       cy="242"
       cx="82"
       id="circle2305"
       style="fill:#33d17a;fill-opacity:1;stroke:none;stroke-width:1;stroke-linecap:round;stroke-linejoin:round" />
    <circle
       r="6"
       cy="223"
       cx="46"
       id="circle2309"
       style="fill:#33d17a;fill-opacity:1;stroke:none;stroke-width:1;stroke-linecap:round;stroke-linejoin:round" />
    <circle
       style="fill:#deddda;fill-opacity:1;stroke:none;stroke-width:1;stroke-linecap:round;stroke-linejoin:round"
       id="circle2311"
       cx="64"
       cy="223"
       r="6" />
    <circle
       style="fill:#f8e45c;fill-opacity:1;stroke:none;stroke-width:1;stroke-linecap:round;stroke-linejoin:round"
       id="circle2313"
       cx="82"
       cy="223"
       r="6" />
    <circle
       style="fill:#62a0ea;fill-opacity:1;stroke:none;stroke-width:1;stroke-linecap:round;stroke-linejoin:round"
       id="circle2317"
       cx="46"
       cy="204"
       r="6" />
    <circle
       r="6"
       cy="204"
       cx="64"
       id="circle2319"
       style="fill:#ed333b;fill-opacity:1;stroke:none;stroke-width:1;stroke-linecap:round;stroke-linejoin:round" />
    <circle
       r="6"
       cy="204"
       cx="82"
       id="circle2321"
       style="fill:#deddda;fill-opacity:1;stroke:none;stroke-width:1;stroke-linecap:round;stroke-linejoin:round" />
  </g>
</svg>
