<?xml version="1.0" encoding="UTF-8" standalone="no"?>
<svg
   xmlns:dc="http://purl.org/dc/elements/1.1/"
   xmlns:cc="http://creativecommons.org/ns#"
   xmlns:rdf="http://www.w3.org/1999/02/22-rdf-syntax-ns#"
   xmlns:svg="http://www.w3.org/2000/svg"
   xmlns="http://www.w3.org/2000/svg"
   xmlns:sodipodi="http://sodipodi.sourceforge.net/DTD/sodipodi-0.dtd"
   xmlns:inkscape="http://www.inkscape.org/namespaces/inkscape"
   height="128px"
   viewBox="0 0 128 128"
   width="128px"
   version="1.1"
   id="svg75"
   sodipodi:docname="applications-system.svg"
   inkscape:version="1.0.1 (3bc2e813f5, 2020-09-07)">
  <metadata
     id="metadata81">
    <rdf:RDF>
      <cc:Work
         rdf:about="">
        <dc:format>image/svg+xml</dc:format>
        <dc:type
           rdf:resource="http://purl.org/dc/dcmitype/StillImage" />
        <dc:title></dc:title>
      </cc:Work>
    </rdf:RDF>
  </metadata>
  <defs
     id="defs79" />
  <sodipodi:namedview
     pagecolor="#ffffff"
     bordercolor="#666666"
     borderopacity="1"
     objecttolerance="10"
     gridtolerance="10"
     guidetolerance="10"
     inkscape:pageopacity="0"
     inkscape:pageshadow="2"
     inkscape:window-width="1920"
     inkscape:window-height="1023"
     id="namedview77"
     showgrid="false"
     inkscape:zoom="0.84472656"
     inkscape:cx="-22.644577"
     inkscape:cy="29.583351"
     inkscape:window-x="0"
     inkscape:window-y="0"
     inkscape:window-maximized="1"
     inkscape:current-layer="g65" />
  <linearGradient
     id="a"
     gradientUnits="userSpaceOnUse"
     x1="64"
     x2="64"
     y1="262.5"
     y2="232">
    <stop
       offset="0"
       stop-color="#9a9996"
       id="stop2" />
    <stop
       offset="1"
       stop-color="#77767b"
       id="stop4" />
  </linearGradient>
  <radialGradient
     id="b"
     cx="-243.066583"
     cy="-74.599978"
     gradientUnits="userSpaceOnUse"
     r="28.266656">
    <stop
       offset="0"
       stop-color="#d5d3cf"
       id="stop7" />
    <stop
       offset="1"
       stop-color="#949390"
       id="stop9"
       style="stop-color:#a7b0b7;stop-opacity:1" />
  </radialGradient>
  <linearGradient
     id="c"
     gradientUnits="userSpaceOnUse"
     x1="203.999985"
     x2="267.999985"
     y1="-64"
     y2="-64">
    <stop
       offset="0"
       stop-color="#d5d3cf"
       id="stop12"
       style="stop-color:#d2d8dc;stop-opacity:1" />
    <stop
       offset="1"
       stop-color="#f6f5f4"
       id="stop14"
       style="stop-color:#f1f3f5;stop-opacity:1" />
  </linearGradient>
  <g
     stroke-width="8"
     id="g65">
    <path
       d="m 67,122 h -6 l -2,-16 h 10 z m 0,0"
       fill="#9a9996"
       stroke="#9a9996"
       stroke-linecap="round"
       stroke-linejoin="round"
       id="path17"
       style="stroke:#758087" />
    <path
       d="m 61,10 h 6 l 2,16 H 59 Z m 0,0"
       fill="#9a9996"
       stroke="#9a9996"
       stroke-linecap="round"
       stroke-linejoin="round"
       id="path19" />
    <path
       d="m 667.00009,291.99991 h -6 l -2,-16 h 10 z m 0,0"
       fill="#9a9996"
       stroke="#9a9996"
       stroke-linecap="round"
       stroke-linejoin="round"
       transform="rotate(90,449,-149.00009)"
       id="path21"
       style="fill:#758087;stroke:#758087" />
    <path
       d="m 661.00009,179.99991 h 6 l 2,16 h -10 z m 0,0"
       fill="#9a9996"
       stroke="#9a9996"
       stroke-linecap="round"
       stroke-linejoin="round"
       transform="rotate(90,449,-149.00009)"
       id="path23"
       style="stroke:#758087" />
    <path
       d="m 666.99905,291.99892 -5.99927,-4.2e-4 -2.00154,-15.99802 9.99991,4e-5 z m 0,0"
       fill="#9a9996"
       stroke="#9a9996"
       stroke-linecap="round"
       stroke-linejoin="round"
       transform="rotate(120.00001,413.07482,-22.205258)"
       id="path25"
       style="stroke:#758087" />
    <path
       d="m 661.00111,180.0008 5.99927,4.2e-4 2.00154,15.99803 -10.00329,0.002 z m 0,0"
       fill="#9a9996"
       stroke="#9a9996"
       stroke-linecap="round"
       stroke-linejoin="round"
       transform="rotate(120.00001,413.07482,-22.205258)"
       id="path27"
       style="stroke:#758087" />
    <path
       d="m 667.00035,291.99847 -5.99928,4.2e-4 -2.00248,-16.00035 10.0033,0.002 z m 0,0"
       fill="#9a9996"
       stroke="#9a9996"
       stroke-linecap="round"
       stroke-linejoin="round"
       transform="rotate(149.99999,386.77576,70.615186)"
       id="path29"
       style="fill:#758087;stroke:#758087" />
    <path
       d="m 660.99974,180.00119 5.99928,-4.2e-4 2.00248,16.00035 -10.0033,-0.002 z m 0,0"
       fill="#9a9996"
       stroke="#9a9996"
       stroke-linecap="round"
       stroke-linejoin="round"
       transform="rotate(149.99999,386.77576,70.615186)"
       id="path31"
       style="stroke:#758087" />
    <path
       d="m 666.99902,291.99905 -5.99928,-4.2e-4 -2.00154,-15.99803 10.0033,-0.002 z m 0,0"
       fill="#9a9996"
       stroke="#9a9996"
       stroke-linecap="round"
       stroke-linejoin="round"
       transform="rotate(30.000012,681.22345,-968.61565)"
       id="path33"
       style="fill:#758087;stroke:#758087" />
    <path
       d="m 661.00107,180.00093 5.99928,4.2e-4 2.00154,15.99802 -10.0033,0.002 z m 0,0"
       fill="#9a9996"
       stroke="#9a9996"
       stroke-linecap="round"
       stroke-linejoin="round"
       transform="rotate(30.000012,681.22345,-968.61565)"
       id="path35" />
    <path
       d="m 667.00038,291.99859 -5.99927,4.2e-4 -2.00248,-16.00035 10.00329,0.002 z m 0,0"
       fill="#9a9996"
       stroke="#9a9996"
       stroke-linecap="round"
       stroke-linejoin="round"
       transform="rotate(59.999988,511.22442,-368.61557)"
       id="path37"
       style="stroke:#758087;fill:#758087" />
    <path
       d="m 660.99978,180.00131 5.99927,-4.1e-4 1.9991,15.99839 -9.99991,5e-5 z m 0,0"
       fill="#9a9996"
       stroke="#9a9996"
       stroke-linecap="round"
       stroke-linejoin="round"
       transform="rotate(59.999988,511.22442,-368.61557)"
       id="path39"
       style="stroke:#758087" />
    <path
       d="m 67,120 h -6 l -2,-16 h 10 z m 0,0"
       fill="#f6f5f4"
       stroke="#f6f5f4"
       stroke-linecap="round"
       stroke-linejoin="round"
       id="path41"
       style="fill:#f1f3f5;stroke:#f1f3f5" />
    <path
       d="m 61,8 h 6 l 2,16 H 59 Z m 0,0"
       fill="#f6f5f4"
       stroke="#f6f5f4"
       stroke-linecap="round"
       stroke-linejoin="round"
       id="path43"
       style="fill:#f1f3f5;stroke:#f1f3f5" />
    <path
       d="m 667.00009,291.99991 h -6 l -2,-16 h 10 z m 0,0"
       fill="#f6f5f4"
       stroke="#f6f5f4"
       stroke-linecap="round"
       stroke-linejoin="round"
       transform="rotate(90,450,-150.00009)"
       id="path45"
       style="fill:#f1f3f5;stroke:#f1f3f5" />
    <path
       d="m 661.00009,179.99991 h 6 l 2,16 h -10 z m 0,0"
       fill="#f6f5f4"
       stroke="#f6f5f4"
       stroke-linecap="round"
       stroke-linejoin="round"
       transform="rotate(90,450,-150.00009)"
       id="path47"
       style="fill:#f1f3f5;stroke:#f1f3f5" />
    <path
       d="m 666.99905,291.99892 -5.99927,-4.2e-4 -2.00154,-15.99802 9.99991,4e-5 z m 0,0"
       fill="#f6f5f4"
       stroke="#f6f5f4"
       stroke-linecap="round"
       stroke-linejoin="round"
       transform="rotate(120.00001,413.65217,-23.205258)"
       id="path49"
       style="fill:#f1f3f5;stroke:#f1f3f5" />
    <path
       d="m 661.00111,180.0008 5.99927,4.2e-4 2.00154,15.99803 -10.00329,0.002 z m 0,0"
       fill="#f6f5f4"
       stroke="#f6f5f4"
       stroke-linecap="round"
       stroke-linejoin="round"
       transform="rotate(120.00001,413.65217,-23.205258)"
       id="path51"
       style="fill:#f1f3f5;stroke:#f1f3f5" />
    <path
       d="m 667.00035,291.99847 -5.99928,4.2e-4 -2.00248,-16.00035 10.0033,0.002 z m 0,0"
       fill="#f6f5f4"
       stroke="#f6f5f4"
       stroke-linecap="round"
       stroke-linejoin="round"
       transform="rotate(149.99999,387.0437,69.615185)"
       id="path53"
       style="fill:#f1f3f5;stroke:#f1f3f5" />
    <path
       d="m 660.99974,180.00119 5.99928,-4.2e-4 2.00248,16.00035 -10.0033,-0.002 z m 0,0"
       fill="#f6f5f4"
       stroke="#f6f5f4"
       stroke-linecap="round"
       stroke-linejoin="round"
       transform="rotate(149.99999,387.0437,69.615185)"
       id="path55"
       style="fill:#f1f3f5;stroke:#f1f3f5" />
    <path
       d="m 666.99902,291.99905 -5.99928,-4.2e-4 -2.00154,-15.99803 10.0033,-0.002 z m 0,0"
       fill="#f6f5f4"
       stroke="#f6f5f4"
       stroke-linecap="round"
       stroke-linejoin="round"
       transform="rotate(30.000012,684.9555,-969.61565)"
       id="path57"
       style="fill:#f1f3f5;stroke:#f1f3f5" />
    <path
       d="m 661.00107,180.00093 5.99928,4.2e-4 2.00154,15.99802 -10.0033,0.002 z m 0,0"
       fill="#f6f5f4"
       stroke="#f6f5f4"
       stroke-linecap="round"
       stroke-linejoin="round"
       transform="rotate(30.000012,684.9555,-969.61565)"
       id="path59"
       style="fill:#f1f3f5;stroke:#f1f3f5" />
    <path
       d="m 667.00038,291.99859 -5.99927,4.2e-4 -2.00248,-16.00035 10.00329,0.002 z m 0,0"
       fill="#f6f5f4"
       stroke="#f6f5f4"
       stroke-linecap="round"
       stroke-linejoin="round"
       transform="rotate(59.999988,512.95647,-369.61557)"
       id="path61"
       style="fill:#f1f3f5;stroke:#f1f3f5" />
    <path
       d="m 660.99978,180.00131 5.99927,-4.1e-4 1.9991,15.99839 -9.99991,5e-5 z m 0,0"
       fill="#f6f5f4"
       stroke="#f6f5f4"
       stroke-linecap="round"
       stroke-linejoin="round"
       transform="rotate(59.999988,512.95647,-369.61557)"
       id="path63"
       style="fill:#f1f3f5;stroke:#f1f3f5" />
  </g>
  <path
     d="m 100 238 c 0 19.882812 -16.117188 36 -36 36 s -36 -16.117188 -36 -36 s 16.117188 -36 36 -36 s 36 16.117188 36 36 z m 0 0"
     fill="none"
     stroke="url(#a)"
     stroke-width="24"
     transform="matrix(1 0 0 1 0 -172)"
     id="path67"
     style="stroke:#758087" />
  <path
     d="m 102 64 c 0 20.988281 -17.011719 38 -38 38 s -38 -17.011719 -38 -38 s 17.011719 -38 38 -38 s 38 17.011719 38 38 z m 0 0"
     fill="none"
     stroke="#f6f5f4"
     stroke-width="20"
     id="path69"
     style="stroke:#f1f3f5" />
  <path
     d="m -209.5 -64 c 0 14.636719 -11.863281 26.5 -26.5 26.5 s -26.5 -11.863281 -26.5 -26.5 s 11.863281 -26.5 26.5 -26.5 s 26.5 11.863281 26.5 26.5 z m 0 0"
     fill="none"
     stroke="url(#b)"
     stroke-linecap="square"
     stroke-linejoin="round"
     stroke-width="5"
     transform="matrix(0 -1 -1 0 0 -172)"
     id="path71" />
  <path
     d="m 268 -64 c 0 17.671875 -14.328125 32 -32 32 s -32 -14.328125 -32 -32 s 14.328125 -32 32 -32 s 32 14.328125 32 32 z m 0 0"
     fill="none"
     stroke="url(#c)"
     stroke-linecap="square"
     stroke-linejoin="round"
     stroke-width="8"
     transform="matrix(0 1 -1 0 0 -172)"
     id="path73" />
</svg>
